<svg xmlns="http://www.w3.org/2000/svg" width="481.000000pt" height="466.000000pt" viewBox="0 0 481.000000 466.000000"
 preserveAspectRatio="xMidYMid meet" viewbox="0 0 32 32">
<g transform="translate(0.000000,466.000000) scale(0.100000,-0.100000)"
fill="#F6F6FE" stroke="none">
<path d="M2369 4619 c-43 -4 -319 -72 -625 -154 -302 -80 -616 -164 -699 -186
-259 -68 -448 -179 -623 -364 -181 -191 -306 -432 -347 -673 -14 -77 -15 -193
-13 -814 3 -709 4 -725 25 -798 47 -162 122 -289 226 -386 66 -62 1577 -1069
1684 -1123 138 -69 309 -99 465 -82 59 7 248 52 520 125 l428 115 442 -118
c244 -65 467 -121 495 -125 171 -22 339 78 404 241 l24 58 0 1310 0 1310 -28
88 c-51 163 -135 301 -238 390 -30 26 -342 237 -694 470 -352 233 -705 466
-785 519 -224 148 -300 179 -481 198 -56 5 -102 9 -103 9 0 -1 -35 -5 -77 -10z
m1712 -1425 c118 -34 211 -128 250 -253 18 -60 19 -97 19 -745 0 -777 2 -756
-85 -933 -93 -188 -256 -348 -432 -424 -44 -19 -1077 -299 -1313 -356 -124
-30 -210 -28 -305 8 -68 25 -150 99 -184 167 -51 99 -52 122 -49 855 l3 682
33 95 c82 234 238 417 442 520 70 35 414 132 1350 379 92 24 198 26 271 5z"/>
</g>
</svg>